name rise49.8558peak67.6521fall70.3087.mot
datacolumns 19
datarows 12
range 14.30161400000000 14.31995000000000
endheader
time	ground_force1_vx	ground_force1_vy	ground_force1_vz	ground_force1_px	ground_force1_py	ground_force1_pz	ground_force2_vx	ground_force2_vy	ground_force2_vz	ground_force2_px	ground_force2_py	ground_force2_pz	ground_torque1_x	ground_torque1_y	ground_torque1_z	ground_torque2_x	ground_torque2_y	ground_torque2_z	
14.30161400000000	2.93887500000000	705.16914899999995	44.76893500000000	0.28129400000000	0.00000000000000	0.12321900000000	0.00000000000000	0.00000000000000	0.00000000000000	0.00000000000000	0.00000000000000	0.00000000000000	0.00000000000000	22.98235100000000	0.00000000000000	0.00000000000000	0.00000000000000	0.00000000000000	
14.30328000000000	2.58834400000000	705.28610600000002	44.75495300000000	0.28045700000000	0.00000000000000	0.12326500000000	0.00000000000000	0.00000000000000	0.00000000000000	0.00000000000000	0.00000000000000	0.00000000000000	0.00000000000000	23.00770700000000	0.00000000000000	0.00000000000000	0.00000000000000	0.00000000000000	
14.30495100000000	2.23689100000000	705.43791299999998	44.74426200000000	0.27964300000000	0.00000000000000	0.12330900000000	0.00000000000000	0.00000000000000	0.00000000000000	0.00000000000000	0.00000000000000	0.00000000000000	0.00000000000000	23.03734300000000	0.00000000000000	0.00000000000000	0.00000000000000	0.00000000000000	
14.30661400000000	1.88424700000000	705.62312699999995	44.73672500000000	0.27885200000000	0.00000000000000	0.12335100000000	0.00000000000000	0.00000000000000	0.00000000000000	0.00000000000000	0.00000000000000	0.00000000000000	0.00000000000000	23.07113400000000	0.00000000000000	0.00000000000000	0.00000000000000	0.00000000000000	
14.30827800000000	1.53013600000000	705.84031700000003	44.73221400000000	0.27808400000000	0.00000000000000	0.12339100000000	0.00000000000000	0.00000000000000	0.00000000000000	0.00000000000000	0.00000000000000	0.00000000000000	0.00000000000000	23.10895600000000	0.00000000000000	0.00000000000000	0.00000000000000	0.00000000000000	
14.30994800000000	1.17427600000000	706.08807100000001	44.73061000000000	0.27733600000000	0.00000000000000	0.12343000000000	0.00000000000000	0.00000000000000	0.00000000000000	0.00000000000000	0.00000000000000	0.00000000000000	0.00000000000000	23.15068800000000	0.00000000000000	0.00000000000000	0.00000000000000	0.00000000000000	
14.31160900000000	0.81638100000000	706.36499500000002	44.73179900000000	0.27660700000000	0.00000000000000	0.12346700000000	0.00000000000000	0.00000000000000	0.00000000000000	0.00000000000000	0.00000000000000	0.00000000000000	0.00000000000000	23.19621200000000	0.00000000000000	0.00000000000000	0.00000000000000	0.00000000000000	
14.31327800000000	0.45615600000000	706.66972699999997	44.73568000000000	0.27589700000000	0.00000000000000	0.12350200000000	0.00000000000000	0.00000000000000	0.00000000000000	0.00000000000000	0.00000000000000	0.00000000000000	0.00000000000000	23.24541400000000	0.00000000000000	0.00000000000000	0.00000000000000	0.00000000000000	
14.31494800000000	0.09330400000000	707.00093800000002	44.74215700000000	0.27520300000000	0.00000000000000	0.12353600000000	0.00000000000000	0.00000000000000	0.00000000000000	0.00000000000000	0.00000000000000	0.00000000000000	0.00000000000000	23.29818300000000	0.00000000000000	0.00000000000000	0.00000000000000	0.00000000000000	
14.31660800000000	-0.27247900000000	707.35733900000002	44.75114600000000	0.27452500000000	0.00000000000000	0.12356800000000	0.00000000000000	0.00000000000000	0.00000000000000	0.00000000000000	0.00000000000000	0.00000000000000	0.00000000000000	23.35441500000000	0.00000000000000	0.00000000000000	0.00000000000000	0.00000000000000	
14.31828300000000	-0.64150500000000	707.73768399999994	44.76257100000000	0.27386100000000	0.00000000000000	0.12359900000000	0.00000000000000	0.00000000000000	0.00000000000000	0.00000000000000	0.00000000000000	0.00000000000000	0.00000000000000	23.41400700000000	0.00000000000000	0.00000000000000	0.00000000000000	0.00000000000000	
14.31995000000000	-1.01408600000000	708.14077799999995	44.77636400000000	0.27320900000000	0.00000000000000	0.12362800000000	0.00000000000000	0.00000000000000	0.00000000000000	0.00000000000000	0.00000000000000	0.00000000000000	0.00000000000000	23.47686400000000	0.00000000000000	0.00000000000000	0.00000000000000	0.00000000000000	
